<svg xmlns="http://www.w3.org/2000/svg" width="400" height="400"><circle cx="133.201" cy="314.669" r="23.439" fill="#0B4870"/><circle cx="302.274" cy="314.669" r="23.439" fill="#0B4870"/><path fill="#D3D3D3" d="M326.599 276.427c0 2.842-1.153 5.428-3.03 7.307a10.243 10.243 0 0 1-7.312 3.031h-173.02a11.452 11.452 0 0 1-10.862-7.756l-.189-.553-3.93-12.373-51.057-160.318-2.293-7.205c-1.724-5.445 1.273-11.256 6.722-12.996a10.354 10.354 0 0 1 12.998 6.723l1.882 5.906 6.666 20.916 6.588 20.684 33.665 105.742 4.189 13.135a11.393 11.393 0 0 0 9.289 7.414h159.351a10.335 10.335 0 0 1 10.343 10.343z"/><path fill="#2A94F4" d="M326.595 146.206v72.23c0 14.961-12.113 27.094-27.074 27.094H143.426l-33.661-105.742h214.134c.647 0 1.277-.057 1.897-.17.526 2.106.799 4.315.799 6.588z"/><path fill="#0E538C" d="M100.924 94.298c0 2.863-1.154 5.449-3.033 7.311a10.248 10.248 0 0 1-7.31 3.033H44.9c-5.707 0-10.343-4.637-10.343-10.344 0-2.861 1.154-5.447 3.033-7.309a10.246 10.246 0 0 1 7.31-3.033h45.681c5.707 0 10.343 4.639 10.343 10.342zm160.395 72.732v50.148c0 5.703-4.643 10.336-10.348 10.336-2.856 0-5.44-1.156-7.301-3.035a10.222 10.222 0 0 1-3.036-7.301V167.03c0-5.703 4.633-10.336 10.337-10.336 2.867 0 5.45 1.156 7.312 3.035a10.234 10.234 0 0 1 3.036 7.301zm-89.287 0v50.148c0 5.703-4.633 10.336-10.347 10.336a10.238 10.238 0 0 1-7.302-3.035 10.222 10.222 0 0 1-3.036-7.301V167.03c0-5.703 4.633-10.336 10.337-10.336 2.866 0 5.451 1.156 7.321 3.035a10.263 10.263 0 0 1 3.027 7.301zm43.972 0v50.148c0 5.703-4.643 10.336-10.347 10.336a10.28 10.28 0 0 1-7.312-3.035c-1.879-1.852-3.026-4.445-3.026-7.301V167.03c0-5.703 4.633-10.336 10.337-10.336 2.866 0 5.45 1.156 7.312 3.035a10.23 10.23 0 0 1 3.036 7.301zm91.974 0v50.148c0 5.703-4.632 10.336-10.337 10.336-2.856 0-5.45-1.156-7.312-3.035a10.218 10.218 0 0 1-3.035-7.301V167.03c0-5.703 4.642-10.336 10.347-10.336 2.856 0 5.45 1.156 7.312 3.035a10.27 10.27 0 0 1 3.025 7.301zM163.76 277.323a10.25 10.25 0 0 1 3.155 7.258 10.245 10.245 0 0 1-2.894 7.367l-18.445 19.117c-3.961 4.105-10.518 4.221-14.624.26a10.234 10.234 0 0 1-3.155-7.258 10.254 10.254 0 0 1 2.892-7.367l18.446-19.115c3.961-4.106 10.519-4.223 14.625-.262zm139.178-2.894a10.256 10.256 0 0 1 7.353 2.924 10.243 10.243 0 0 1 3.141 7.266l.391 26.562c.083 5.703-4.484 10.406-10.19 10.49a10.23 10.23 0 0 1-7.352-2.924 10.244 10.244 0 0 1-3.143-7.264l-.39-26.561c-.085-5.704 4.484-10.409 10.19-10.493zm31.297-144.979c0 2.857-1.156 5.451-3.036 7.312a10.162 10.162 0 0 1-5.403 2.855c-.62.113-1.25.17-1.897.17H109.765l-6.588-20.676h220.722c5.703.001 10.336 4.636 10.336 10.339z"/><circle cx="317.145" cy="110.188" r="48.298" fill="#FFBE55"/><path fill="#F7F7F7" d="M343.796 110.188c0 2.303-.93 4.379-2.438 5.871a8.227 8.227 0 0 1-5.871 2.439H325.45v10.037c0 4.58-3.721 8.301-8.309 8.301a8.206 8.206 0 0 1-5.862-2.439 8.206 8.206 0 0 1-2.439-5.861v-10.037h-10.036c-4.582 0-8.309-3.729-8.309-8.311 0-2.293.927-4.375 2.438-5.871a8.23 8.23 0 0 1 5.871-2.438h10.036V91.851c0-4.588 3.722-8.309 8.302-8.309 2.303 0 4.377.928 5.871 2.438a8.222 8.222 0 0 1 2.438 5.871v10.029h10.037c4.578 0 8.308 3.728 8.308 8.308z"/></svg>